<mxfile host="Electron" agent="Mozilla/5.0 (Windows NT 10.0; Win64; x64) AppleWebKit/537.36 (KHTML, like Gecko) draw.io/28.1.2 Chrome/138.0.7204.243 Electron/37.4.0 Safari/537.36" version="28.1.2">
  <diagram id="alice-bob" name="SinglePage">
    <mxGraphModel dx="1494" dy="1382" grid="1" gridSize="10" guides="1" tooltips="1" connect="1" arrows="1" fold="1" page="1" pageScale="1" pageWidth="850" pageHeight="1100" background="light-dark(#F7F7F7,#121212)" math="0" shadow="0">
      <root>
        <object label="" documentation="The Alice and Bob characters were created by [Ron Rivest](https://en.wikipedia.org/wiki/Ron_Rivest), [Adi Shamir](https://en.wikipedia.org/wiki/Adi_Shamir), and [Leonard Adleman](https://en.wikipedia.org/wiki/Leonard_Adleman) in their 1978 paper &quot;A Method for Obtaining Digital Signatures and Public-key Cryptosystems&quot;" id="0">
          <mxCell />
        </object>
        <mxCell id="1" parent="0" />
        <mxCell id="NDMAX1CGEOr9LUrrhr4b-1" value="Alice" style="rounded=1;whiteSpace=wrap;html=1;" vertex="1" parent="1">
          <mxGeometry x="370" y="670" width="120" height="60" as="geometry" />
        </mxCell>
      </root>
    </mxGraphModel>
  </diagram>
</mxfile>
